<svg width="128" height="128" viewBox="0 0 128 128" xmlns="http://www.w3.org/2000/svg">
  <!-- Background circle -->
  <circle cx="64" cy="64" r="60" fill="#007bff" stroke="#0056b3" stroke-width="4"/>
  
  <!-- Shield icon -->
  <path d="M64 20 L90 30 L90 60 C90 80 64 100 64 100 C64 100 38 80 38 60 L38 30 Z" fill="white" stroke="#0056b3" stroke-width="2"/>
  
  <!-- Lock icon -->
  <rect x="55" y="45" width="18" height="20" rx="2" fill="#007bff" stroke="white" stroke-width="1"/>
  <path d="M60 45 L60 40 C60 35 64 30 64 30 C64 30 68 35 68 40 L68 45" fill="none" stroke="white" stroke-width="2"/>
  
  <!-- Mail icon -->
  <rect x="25" y="35" width="20" height="15" rx="2" fill="white" stroke="#0056b3" stroke-width="1"/>
  <path d="M25 40 L35 45 L45 40" fill="none" stroke="#0056b3" stroke-width="1"/>
  
  <!-- ZK symbol (mathematical) -->
  <text x="85" y="50" font-family="Arial, sans-serif" font-size="16" font-weight="bold" fill="white">ZK</text>
</svg>
